<?xml version="1.0" standalone="no"?>
<!DOCTYPE svg PUBLIC "-//W3C//DTD SVG 20010904//EN"
 "http://www.w3.org/TR/2001/REC-SVG-20010904/DTD/svg10.dtd">
<svg version="1.0" xmlns="http://www.w3.org/2000/svg"
 width="400.000000pt" height="320.000000pt" viewBox="0 0 400.000000 320.000000"
 preserveAspectRatio="xMidYMid meet">

<g transform="translate(0.000000,320.000000) scale(0.100000,-0.100000)"
fill="#000000" stroke="none">
<path d="M1770 2895 c-36 -6 -92 -21 -126 -33 -33 -12 -69 -22 -79 -22 -18 0
-81 -26 -140 -57 -114 -61 -149 -82 -220 -136 -88 -66 -208 -184 -202 -201 5
-14 98 -65 122 -65 12 -1 51 28 95 70 41 39 92 80 112 90 20 10 40 24 43 30
14 21 242 122 335 147 86 23 112 26 285 25 177 0 196 -2 285 -27 52 -15 122
-41 155 -57 33 -16 64 -29 70 -29 22 0 194 -121 259 -182 37 -34 73 -66 80
-70 14 -8 128 51 134 70 9 29 -223 228 -342 294 -90 50 -178 88 -222 98 -24 6
-61 17 -81 25 -110 43 -406 59 -563 30z"/>
<path d="M844 2486 c-7 -18 6 -57 44 -131 88 -173 289 -326 480 -365 59 -12
65 -12 81 6 24 26 65 130 58 148 -3 8 -23 18 -44 22 -21 3 -64 15 -95 25 -32
11 -63 19 -69 19 -12 0 -143 59 -184 82 -11 7 -38 20 -59 31 -22 11 -56 35
-75 53 -20 19 -44 36 -53 40 -9 3 -31 24 -47 46 -25 33 -32 38 -37 24z"/>
<path d="M3104 2464 c-22 -32 -150 -129 -212 -159 -141 -69 -201 -95 -215 -95
-9 0 -40 -9 -69 -19 -29 -11 -70 -23 -91 -27 -21 -3 -41 -13 -44 -22 -4 -8 11
-49 32 -90 l39 -74 41 6 c64 10 147 38 184 63 19 13 38 23 44 23 38 0 214 160
251 229 36 67 86 171 86 181 0 20 -30 10 -46 -16z"/>
<path d="M851 2242 c-58 -110 -91 -184 -91 -208 0 -10 -9 -43 -20 -73 -38 -99
-50 -184 -50 -357 0 -171 12 -258 50 -359 10 -27 22 -64 25 -82 6 -31 36 -103
55 -133 9 -14 25 -44 74 -137 10 -18 22 -35 27 -39 5 -3 27 -29 48 -57 71 -95
225 -239 283 -264 15 -7 28 -17 28 -23 0 -5 4 -10 10 -10 5 0 34 -16 64 -35
30 -19 59 -35 63 -35 4 0 42 -14 83 -31 150 -63 131 -58 350 -89 83 -12 208
-12 285 -1 33 5 93 14 134 20 40 6 88 18 105 25 17 8 56 23 86 34 56 21 133
55 160 72 8 5 35 21 60 36 50 30 178 131 226 178 58 57 152 176 183 230 17 29
38 59 46 66 8 7 15 17 15 22 0 6 11 36 24 67 50 117 69 167 78 201 50 202 51
484 2 675 -22 90 -86 246 -126 312 -23 39 -41 35 -62 -15 -9 -20 -26 -49 -38
-65 l-22 -27 22 -44 c55 -115 112 -365 112 -496 0 -113 -55 -360 -102 -455
-51 -104 -102 -195 -108 -195 -5 0 -22 -22 -39 -48 -42 -66 -253 -262 -282
-262 -7 0 -20 -6 -28 -14 -43 -36 -209 -108 -296 -127 -175 -40 -316 -48 -448
-28 -105 16 -261 59 -307 84 -14 8 -45 25 -70 38 -128 67 -180 106 -285 213
-86 88 -153 179 -195 265 -17 35 -37 75 -45 89 -12 24 -28 71 -62 190 -13 42
-16 103 -16 260 0 192 1 210 26 293 14 49 40 117 57 153 16 35 30 72 30 82 0
9 -13 33 -29 52 -15 19 -31 45 -35 57 -12 37 -33 35 -55 -5z"/>
<path d="M1860 2188 c-25 -3 -103 -15 -175 -25 -119 -17 -130 -20 -142 -43
-55 -113 -65 -168 -35 -198 11 -11 25 -21 33 -24 7 -2 9 -10 5 -16 -10 -17
-65 -15 -100 3 -15 8 -34 15 -40 15 -7 0 -30 13 -52 29 -48 35 -121 61 -174
61 -51 0 -192 -30 -207 -44 -19 -17 2 -129 34 -185 36 -63 68 -95 135 -136 80
-50 146 -60 261 -41 51 9 103 13 116 9 23 -6 23 -4 17 29 -10 53 0 68 44 68
31 0 44 -7 74 -41 43 -47 42 -64 -3 -64 -69 -1 -89 -71 -51 -181 24 -69 27
-119 16 -271 -9 -110 -6 -133 26 -241 14 -47 38 -42 38 8 0 22 5 40 10 40 15
0 12 -74 -5 -106 -8 -16 -15 -36 -15 -45 0 -34 103 -116 204 -162 113 -52 233
-26 362 79 29 23 58 44 65 46 17 6 13 77 -6 98 -16 17 -19 47 -9 74 10 27 24
7 24 -35 0 -54 16 -42 37 29 14 46 18 95 18 257 0 187 1 203 23 244 27 56 28
94 1 132 -14 20 -29 29 -49 29 -36 0 -44 13 -29 42 24 48 51 68 91 68 31 0 39
-4 43 -23 4 -12 1 -35 -5 -51 l-10 -28 35 6 c20 4 70 0 118 -9 74 -15 89 -15
155 -1 58 12 85 24 137 64 68 51 98 95 129 189 10 29 16 65 14 80 -4 40 -82
66 -203 67 -92 1 -129 -10 -180 -53 -33 -28 -131 -63 -166 -59 -41 4 -47 20
-13 38 43 23 46 41 20 113 -48 133 -35 121 -155 136 -58 6 -124 16 -146 21
-51 12 -256 17 -315 8z m179 -1104 c17 -9 51 -17 74 -19 23 -1 44 -3 46 -4 2
0 -18 -26 -44 -56 -47 -55 -53 -85 -18 -85 20 0 73 48 73 67 0 18 27 16 34 -3
3 -9 6 -42 6 -74 l0 -57 -47 -13 c-84 -21 -93 -29 -36 -29 28 -1 54 -5 57 -10
11 -17 -72 -29 -199 -29 -122 -1 -195 11 -195 31 0 4 3 6 8 4 4 -2 30 -1 57 3
51 7 47 14 -15 24 -19 4 -42 10 -50 16 -17 10 -18 75 -3 130 l9 35 13 -25 c23
-42 53 -70 78 -70 35 0 29 33 -14 82 -21 24 -41 45 -46 46 -19 9 8 22 36 17
21 -3 44 2 67 14 44 24 69 25 109 5z"/>
</g>
</svg>
