<?xml version="1.0" standalone="no"?>
<!DOCTYPE svg PUBLIC "-//W3C//DTD SVG 20010904//EN"
 "http://www.w3.org/TR/2001/REC-SVG-20010904/DTD/svg10.dtd">
<svg version="1.0" xmlns="http://www.w3.org/2000/svg"
 width="400.000000pt" height="320.000000pt" viewBox="0 0 400.000000 320.000000"
 preserveAspectRatio="xMidYMid meet">

<g transform="translate(0.000000,320.000000) scale(0.100000,-0.100000)"
fill="#000000" stroke="none">
<path d="M1982 2973 c3 -133 5 -158 18 -158 13 0 15 25 18 158 2 153 2 157
-18 157 -20 0 -20 -4 -18 -157z"/>
<path d="M1288 2944 c-10 -9 143 -274 158 -274 8 0 14 5 14 11 0 6 -32 69 -72
140 -65 117 -84 140 -100 123z"/>
<path d="M2661 2788 c-57 -91 -78 -135 -71 -142 14 -14 24 -2 109 136 65 106
77 138 52 138 -5 0 -45 -59 -90 -132z"/>
<path d="M1857 2749 c-38 -5 -96 -18 -130 -29 -33 -11 -65 -20 -70 -20 -19 0
-191 -92 -242 -128 -65 -47 -175 -152 -175 -167 0 -10 80 -55 98 -55 5 0 31
22 59 49 104 100 268 187 408 216 114 23 299 21 398 -4 146 -38 298 -121 397
-218 24 -23 49 -43 55 -43 16 0 88 44 92 56 2 6 -20 34 -49 62 -231 222 -528
321 -841 281z"/>
<path d="M777 2456 c-3 -8 0 -19 6 -24 37 -29 256 -159 261 -154 17 16 -5 36
-121 108 -151 94 -139 88 -146 70z"/>
<path d="M1120 2420 c0 -52 70 -166 143 -232 87 -79 273 -158 313 -133 20 13
56 107 46 117 -5 5 -48 20 -98 34 -164 47 -303 124 -376 208 l-27 31 -1 -25z"/>
<path d="M2845 2416 c-43 -65 -225 -165 -390 -213 -52 -16 -95 -32 -95 -38 0
-5 12 -34 27 -62 31 -59 39 -62 120 -38 116 34 240 125 301 220 29 44 72 132
72 146 0 17 -20 9 -35 -15z"/>
<path d="M3107 2336 c-71 -40 -129 -76 -129 -80 1 -27 22 -20 142 47 122 68
155 95 125 103 -5 2 -68 -30 -138 -70z"/>
<path d="M1125 2252 c-34 -61 -62 -129 -88 -212 -27 -84 -30 -113 -34 -250 -5
-158 -3 -173 41 -330 18 -66 27 -86 88 -200 123 -230 396 -425 666 -476 111
-21 282 -20 396 1 85 16 251 79 306 115 14 9 45 30 70 46 69 45 203 183 259
268 28 43 51 80 51 83 0 3 6 19 14 36 90 195 116 389 81 599 -21 133 -101 338
-131 338 -8 0 -14 -4 -14 -8 0 -5 -13 -29 -29 -52 -28 -42 -29 -46 -15 -73 9
-16 26 -61 39 -100 83 -254 44 -544 -103 -763 -79 -120 -195 -223 -328 -291
-148 -77 -347 -115 -487 -94 -188 28 -330 86 -462 191 -66 53 -142 133 -158
168 -6 12 -13 22 -17 22 -12 0 -107 204 -126 270 -28 102 -25 348 5 455 13 43
32 95 42 114 25 48 24 74 -6 109 -14 17 -25 35 -25 41 0 17 -24 13 -35 -7z"/>
<path d="M1800 2193 c-41 -8 -90 -16 -108 -19 -28 -4 -36 -12 -53 -52 -33 -74
-35 -108 -10 -124 11 -7 21 -18 21 -25 0 -24 -48 -13 -136 32 -97 50 -152 57
-249 31 l-50 -13 1 -52 c2 -71 42 -134 118 -186 56 -39 60 -40 139 -39 45 0
104 2 130 4 46 3 48 5 42 28 -13 54 37 68 87 24 36 -33 33 -62 -7 -62 -39 0
-52 -37 -37 -103 7 -29 16 -68 21 -87 4 -19 3 -76 -2 -125 -8 -74 -6 -103 8
-162 19 -82 44 -101 46 -35 2 33 2 34 6 7 3 -16 -1 -48 -7 -69 -12 -39 -11
-41 23 -71 59 -52 79 -64 137 -86 85 -32 147 -17 262 65 45 32 57 47 58 68 0
15 -4 30 -10 33 -5 3 -10 23 -10 43 0 39 16 34 22 -8 l4 -25 14 30 c10 21 15
78 16 195 2 143 5 171 23 210 11 25 21 52 20 60 0 23 -32 56 -62 64 -27 6 -27
7 -12 36 19 36 44 51 74 43 19 -5 22 -11 19 -39 l-4 -33 51 -2 c196 -9 209 -7
272 36 47 32 64 52 91 105 21 43 31 77 30 99 -3 33 -6 36 -53 48 -95 24 -155
18 -237 -26 -112 -59 -195 -67 -132 -12 29 26 28 42 -11 129 -23 51 -25 52
-67 52 -24 0 -74 7 -113 15 -86 18 -262 17 -365 -2z m226 -828 c16 -8 44 -15
62 -15 17 0 32 -3 32 -6 0 -4 -16 -26 -35 -49 -19 -23 -31 -45 -28 -49 15 -14
44 -4 64 24 12 16 26 27 31 24 4 -3 8 -27 8 -54 0 -52 -15 -70 -59 -70 -12 0
-21 -4 -21 -10 0 -5 14 -10 32 -10 25 0 29 -3 20 -12 -19 -19 -238 -21 -271
-3 l-26 14 38 1 c20 0 37 5 37 10 0 6 -13 10 -28 10 -49 0 -61 30 -46 108 l6
31 22 -32 c25 -37 66 -49 66 -20 0 11 -13 32 -30 48 -38 37 -38 45 3 45 25 1
68 14 93 29 1 1 15 -6 30 -14z"/>
<path d="M560 1695 c0 -13 24 -15 160 -15 136 0 160 2 160 15 0 13 -24 15
-160 15 -136 0 -160 -2 -160 -15z"/>
<path d="M3120 1695 c0 -13 24 -15 160 -15 136 0 160 2 160 15 0 13 -24 15
-160 15 -136 0 -160 -2 -160 -15z"/>
<path d="M875 1084 c-71 -41 -131 -78 -133 -83 -10 -30 34 -14 153 53 97 56
133 81 128 91 -3 8 -8 15 -12 14 -3 0 -64 -34 -136 -75z"/>
<path d="M2950 1096 c0 -11 248 -176 264 -176 2 0 6 6 9 14 4 10 -33 39 -124
95 -71 45 -134 81 -139 81 -6 0 -10 -6 -10 -14z"/>
<path d="M1310 619 c-73 -118 -86 -149 -60 -149 7 0 170 253 170 264 0 2 -6 6
-14 9 -10 4 -39 -34 -96 -124z"/>
<path d="M2540 709 c0 -14 139 -267 151 -275 5 -3 12 1 15 10 7 19 -135 276
-153 276 -7 0 -13 -5 -13 -11z"/>
<path d="M2024 697 c21 -15 18 -52 -4 -52 -9 0 -17 13 -20 30 -4 21 -8 26 -14
17 -4 -7 -5 -24 -2 -38 4 -16 1 -30 -9 -40 -40 -41 9 -105 57 -75 17 11 22 10
29 0 4 -8 11 -10 16 -6 4 4 2 16 -3 25 -7 11 -8 27 -3 42 8 22 8 23 -5 7 -11
-14 -15 -15 -25 -3 -9 10 -7 21 6 45 17 31 17 32 -1 46 -11 8 -24 15 -30 15
-5 0 -2 -6 8 -13z m-3 -99 c23 -29 24 -44 2 -52 -25 -10 -47 17 -39 48 8 32
13 32 37 4z"/>
<path d="M2164 698 c-26 -12 -44 -48 -44 -89 0 -34 38 -79 67 -79 35 0 63 13
63 28 0 13 -3 12 -20 -3 -31 -28 -67 -13 -81 34 -14 46 2 88 41 108 14 7 18
12 10 12 -8 0 -25 -5 -36 -11z"/>
<path d="M1760 615 c0 -47 3 -85 8 -85 4 0 6 30 5 67 l-2 68 24 -50 c13 -27
24 -56 24 -63 2 -30 25 -3 47 53 l23 60 0 -67 c1 -62 3 -68 22 -68 15 0 19 4
12 13 -5 6 -8 45 -8 85 2 91 -14 95 -47 12 -12 -33 -26 -60 -29 -60 -4 0 -17
27 -29 60 -33 88 -50 80 -50 -25z"/>
<path d="M2231 683 c7 -10 15 -20 16 -22 2 -2 3 5 3 17 0 14 -6 22 -16 22 -14
0 -15 -3 -3 -17z"/>
<path d="M1713 410 c-49 -20 -59 -104 -18 -145 25 -25 42 -29 83 -19 14 4 22
14 22 27 0 21 0 21 -16 -1 -18 -26 -56 -29 -75 -5 -22 26 -18 112 5 129 27 19
42 18 66 -6 l20 -20 0 20 c0 11 -6 20 -12 20 -7 0 -22 2 -33 5 -11 2 -30 0
-42 -5z"/>
<path d="M2592 413 c-18 -7 -33 -39 -26 -58 4 -9 24 -25 46 -36 45 -23 47 -46
8 -66 -23 -12 -23 -13 -4 -13 26 0 57 33 52 57 -2 10 -20 27 -40 38 -48 25
-55 45 -28 67 22 17 18 22 -8 11z"/>
<path d="M1338 325 c-3 -80 -2 -85 17 -85 18 0 20 5 17 39 -3 32 0 40 15 44
16 4 16 5 1 6 -14 1 -18 10 -18 41 0 28 -4 40 -14 40 -11 0 -15 -20 -18 -85z"/>
<path d="M1440 371 c0 -29 -5 -41 -17 -44 -16 -4 -16 -5 1 -6 15 -1 17 -8 14
-40 -3 -33 -1 -39 17 -39 19 0 20 6 17 84 -3 65 -7 84 -18 84 -10 0 -14 -12
-14 -39z"/>
<path d="M1562 389 c-5 -13 -19 -50 -31 -83 -12 -32 -20 -61 -18 -63 3 -2 9
10 15 26 9 25 17 31 41 31 30 0 50 -27 36 -50 -3 -5 3 -10 14 -10 26 0 26 0
-5 85 -32 85 -41 95 -52 64z m28 -66 c0 -7 -11 -13 -24 -13 -23 0 -24 2 -13
30 11 28 13 29 24 13 7 -9 13 -23 13 -30z"/>
<path d="M1840 325 c0 -61 3 -85 13 -85 9 0 12 24 12 85 0 61 -3 85 -12 85
-10 0 -13 -24 -13 -85z"/>
<path d="M1918 325 l-3 -85 53 0 c48 0 52 2 51 23 -1 16 -2 18 -6 5 -3 -12
-14 -18 -34 -18 -27 0 -29 3 -29 36 0 35 1 36 30 32 25 -4 30 -1 29 16 0 12
-3 15 -6 9 -2 -7 -16 -13 -29 -13 -21 0 -24 4 -24 40 0 28 -4 40 -14 40 -11 0
-15 -20 -18 -85z"/>
<path d="M2006 395 c4 -8 8 -15 10 -15 2 0 4 7 4 15 0 8 -4 15 -10 15 -5 0 -7
-7 -4 -15z"/>
<path d="M2068 325 c-2 -52 1 -85 7 -85 6 0 9 21 7 49 -7 98 -1 102 47 28 24
-37 47 -67 52 -67 5 0 8 37 7 83 -1 81 -1 81 -7 22 l-6 -60 -39 58 c-21 31
-45 57 -52 57 -9 0 -13 -24 -16 -85z"/>
<path d="M2238 324 l-3 -86 49 5 c61 5 86 32 86 88 0 41 -27 79 -55 79 -10 0
-6 -8 10 -25 46 -45 21 -134 -37 -135 -16 0 -18 10 -18 80 0 63 -3 80 -14 80
-11 0 -15 -20 -18 -86z"/>
<path d="M2450 384 c-6 -16 -18 -49 -27 -74 -9 -25 -21 -51 -26 -57 -6 -9 -6
-13 1 -13 5 0 15 14 21 30 8 24 16 30 40 30 29 0 50 -27 37 -48 -2 -4 7 -9 21
-10 19 -1 23 1 16 11 -5 6 -20 41 -32 77 -29 82 -37 91 -51 54z m25 -51 c5
-20 3 -23 -18 -23 -24 0 -25 2 -14 30 12 31 20 29 32 -7z"/>
<path d="M2636 402 c6 -4 14 -14 17 -22 4 -10 6 -8 6 8 1 15 -5 22 -16 22 -11
0 -14 -3 -7 -8z"/>
<path d="M2560 272 c0 -14 6 -22 16 -22 14 0 15 3 3 18 -7 9 -15 19 -16 21 -2
2 -3 -5 -3 -17z"/>
<path d="M1368 212 c-87 -1 -158 -6 -158 -10 0 -4 353 -9 785 -11 483 -1 785
1 785 7 0 5 -154 12 -375 17 -339 6 -554 6 -1037 -3z"/>
<path d="M1340 140 l135 -6 -120 -5 c-89 -3 -55 -5 135 -7 140 -2 327 -5 415
-8 168 -6 769 13 845 26 25 4 -313 7 -750 7 -437 -1 -734 -4 -660 -7z m177 -6
c-3 -3 -12 -4 -19 -1 -8 3 -5 6 6 6 11 1 17 -2 13 -5z m201 -1 c-32 -2 -86 -2
-120 0 -35 2 -9 3 57 3 66 0 94 -1 63 -3z m627 -4 c-185 -8 -544 -3 -554 7 -2
2 166 3 375 2 366 -1 372 -2 179 -9z"/>
</g>
</svg>
